<svg width="80" height="22" viewBox="0 0 80 22" fill="none" xmlns="http://www.w3.org/2000/svg">
<path d="M5.757 17.172H12.253V21H0.798V0.641999H5.757V17.172ZM24.2463 21.203C22.3323 21.203 20.573 20.7583 18.9683 19.869C17.383 18.9797 16.1166 17.7423 15.1693 16.157C14.2413 14.5523 13.7773 12.7543 13.7773 10.763C13.7773 8.77167 14.2413 6.98333 15.1693 5.398C16.1166 3.81267 17.383 2.57533 18.9683 1.686C20.573 0.796666 22.3323 0.352 24.2463 0.352C26.1603 0.352 27.91 0.796666 29.4953 1.686C31.1 2.57533 32.3566 3.81267 33.2653 5.398C34.1933 6.98333 34.6573 8.77167 34.6573 10.763C34.6573 12.7543 34.1933 14.5523 33.2653 16.157C32.3373 17.7423 31.0806 18.9797 29.4953 19.869C27.91 20.7583 26.1603 21.203 24.2463 21.203ZM24.2463 16.679C25.8703 16.679 27.1656 16.1377 28.1323 15.055C29.1183 13.9723 29.6113 12.5417 29.6113 10.763C29.6113 8.965 29.1183 7.53433 28.1323 6.471C27.1656 5.38833 25.8703 4.847 24.2463 4.847C22.603 4.847 21.2883 5.37867 20.3023 6.442C19.3356 7.50533 18.8523 8.94567 18.8523 10.763C18.8523 12.561 19.3356 14.0013 20.3023 15.084C21.2883 16.1473 22.603 16.679 24.2463 16.679ZM50.9302 7.08C50.5628 6.40333 50.0312 5.891 49.3352 5.543C48.6585 5.17567 47.8562 4.992 46.9282 4.992C45.3235 4.992 44.0378 5.52367 43.0712 6.587C42.1045 7.631 41.6212 9.03267 41.6212 10.792C41.6212 12.6673 42.1238 14.1367 43.1292 15.2C44.1538 16.244 45.5555 16.766 47.3342 16.766C48.5522 16.766 49.5768 16.4567 50.4082 15.838C51.2588 15.2193 51.8775 14.33 52.2642 13.17H45.9712V9.516H56.7592V14.127C56.3918 15.3643 55.7635 16.5147 54.8742 17.578C54.0042 18.6413 52.8925 19.5017 51.5392 20.159C50.1858 20.8163 48.6585 21.145 46.9572 21.145C44.9465 21.145 43.1485 20.71 41.5632 19.84C39.9972 18.9507 38.7695 17.723 37.8802 16.157C37.0102 14.591 36.5752 12.8027 36.5752 10.792C36.5752 8.78133 37.0102 6.993 37.8802 5.427C38.7695 3.84167 39.9972 2.614 41.5632 1.744C43.1292 0.854666 44.9175 0.409999 46.9282 0.409999C49.3642 0.409999 51.4135 0.999665 53.0762 2.179C54.7582 3.35833 55.8698 4.992 56.4112 7.08H50.9302ZM69.134 21.203C67.22 21.203 65.4607 20.7583 63.856 19.869C62.2707 18.9797 61.0043 17.7423 60.057 16.157C59.129 14.5523 58.665 12.7543 58.665 10.763C58.665 8.77167 59.129 6.98333 60.057 5.398C61.0043 3.81267 62.2707 2.57533 63.856 1.686C65.4607 0.796666 67.22 0.352 69.134 0.352C71.048 0.352 72.7977 0.796666 74.383 1.686C75.9877 2.57533 77.2443 3.81267 78.153 5.398C79.081 6.98333 79.545 8.77167 79.545 10.763C79.545 12.7543 79.081 14.5523 78.153 16.157C77.225 17.7423 75.9683 18.9797 74.383 19.869C72.7977 20.7583 71.048 21.203 69.134 21.203ZM69.134 16.679C70.758 16.679 72.0533 16.1377 73.02 15.055C74.006 13.9723 74.499 12.5417 74.499 10.763C74.499 8.965 74.006 7.53433 73.02 6.471C72.0533 5.38833 70.758 4.847 69.134 4.847C67.4907 4.847 66.176 5.37867 65.19 6.442C64.2233 7.50533 63.74 8.94567 63.74 10.763C63.74 12.561 64.2233 14.0013 65.19 15.084C66.176 16.1473 67.4907 16.679 69.134 16.679Z" fill="#1090CB"/>
</svg>


